<svg width="212mm" height="135mm" version="1.1" viewBox="0 0 212 135" xmlns="http://www.w3.org/2000/svg" xmlns:xlink="http://www.w3.org/1999/xlink"><rect width="212" height="135" fill="#fff"/><rect x="94" y="5" width="50" height="128" fill="#eee"/><path d="m94 117v-113m50 113v-113m-112 83h176m-176-30h175" fill="none" stroke="#555" stroke-dasharray="1" stroke-width=".7"/><path id="a" d="m52 116c47 0 43-59 67-59" fill="none" stroke="#d30" stroke-width="1.4"/><use transform="matrix(-1 0 0 1 238 0)" xlink:href="#a"/><path d="m2 87h23m-4 30h187m-64 5v-10m-50 10v-10m-67-25h10m-10-30h10m-5 71v-122m66 33h42" stroke="#000"/><path d="m210 117-6-2 1 2-1 2m-172-117l2 6-2-1-2 1m114 31-6-2 1 2-1 2m-44-2 6-2-1 2 1 2"/>
 <g font-family="Times" font-size="12px" font-style="italic"><text x="22" y="128" font-style="normal">0<tspan x="8" y="97">2</tspan><tspan x="101" y="35">FWHM</tspan></text><text x="96" y="126">x<tspan dy="4" font-size="8px" font-style="normal">1</tspan></text><text x="147" y="126">x<tspan dy="4" font-size="8px" font-style="normal">2</tspan></text><text x="5" y="82">f<tspan dy="3" font-size="8px" font-style="normal">max</tspan></text><text x="5" y="59">f<tspan dy="3" font-size="8px" font-style="normal">max</tspan></text><text x="195" y="127">x</text><text x="11" y="13">f(x)</text></g></svg>